<svg xmlns="http://www.w3.org/2000/svg" width="274" height="184" viewBox="0 0 274 184">
  <title>Hurdler logo</title>
  <defs>
    <linearGradient x1="0" y1="1" y2="0" id="gradient">
      <stop stop-color="#F200FF" offset="0" />
      <stop stop-color="#00F" offset="1" />
    </linearGradient>
  </defs>
  <path fill="#404040" d="M49.066 132.363v14.708h-5.65V109.23h5.65v15.627c.807-1.668 2.026-2.98 3.657-3.932 1.63-.953 3.388-1.43 5.27-1.43 3.028 0 5.474.936 7.34 2.81 1.866 1.87 2.8 4.578 2.8 8.12v16.648h-5.65v-14.91c0-5.006-2.05-7.51-6.153-7.51-1.95 0-3.65.656-5.095 1.967-1.446 1.31-2.17 3.226-2.17 5.746zm46.89 2.247V119.9h5.65v27.17h-5.65v-4.952c-.908 1.668-2.16 2.98-3.757 3.932-1.6.953-3.322 1.43-5.17 1.43-3.028 0-5.474-.936-7.34-2.81-1.866-1.872-2.8-4.578-2.8-8.12V119.9h5.65v14.914c0 5.005 2.05 7.508 6.153 7.508 1.95 0 3.65-.656 5.095-1.966 1.445-1.31 2.168-3.226 2.168-5.746zm29.085-9.346c-2.79 0-4.89.92-6.304 2.758-1.412 1.838-2.118 4.307-2.118 7.405v11.644h-5.65V119.9h5.65v5.466c.908-1.702 2.144-3.098 3.707-4.188 1.564-1.09 3.22-1.65 4.97-1.685l.05 5.77h-.304zm9.213 18.335c-2.522-2.59-3.783-5.994-3.783-10.216 0-4.222 1.295-7.592 3.884-10.112 2.59-2.52 5.675-3.78 9.256-3.78 3.58 0 6.464 1.533 8.65 4.597v-14.914h5.65v37.895h-5.65v-4.084c-2.085 2.996-5.128 4.494-9.13 4.494-3.396 0-6.355-1.294-8.877-3.88zm4.338-3.627c1.65 1.634 3.582 2.45 5.802 2.45 2.22 0 4.102-.825 5.65-2.476 1.546-1.65 2.32-3.77 2.32-6.358 0-2.59-.774-4.75-2.32-6.487-1.548-1.737-3.448-2.605-5.7-2.605-2.254 0-4.187.868-5.8 2.605-1.615 1.736-2.422 3.906-2.422 6.51 0 2.606.823 4.725 2.47 6.36zm34.332 7.098h-5.65v-37.894h5.65v37.895zm34.33-11.08H186.22c.134 1.974 1.025 3.565 2.673 4.774 1.647 1.21 3.53 1.813 5.65 1.813 3.36 0 5.917-1.072 7.665-3.217l3.23 3.575c-2.893 3.03-6.66 4.545-11.3 4.545-3.766 0-6.97-1.268-9.608-3.805-2.64-2.536-3.96-5.94-3.96-10.214 0-4.272 1.345-7.668 4.035-10.188 2.69-2.52 5.86-3.78 9.508-3.78 3.648 0 6.75 1.116 9.306 3.346 2.555 2.23 3.832 5.303 3.832 9.218v3.933zm-21.033-4.495h15.383c0-2.282-.706-4.035-2.118-5.26-1.413-1.226-3.153-1.84-5.22-1.84-2.07 0-3.926.64-5.574 1.916-1.647 1.278-2.47 3.006-2.47 5.185zm42.5-6.23c-2.79 0-4.892.918-6.304 2.757-1.412 1.838-2.118 4.307-2.118 7.405v11.644h-5.65V119.9h5.65v5.466c.908-1.702 2.143-3.098 3.707-4.188 1.564-1.09 3.22-1.65 4.968-1.685l.05 5.77h-.302z" />
  <path fill="url(#gradient)" d="M128.044 42.388c.917-.47 3.633-1.192 3.633-1.192s-.182-.512-.015-1.2c.167-.687-2.417-6.936 3.953-8.654 6.37-1.72 7.67 3.53 7.67 5.024 0 1.495.636 2.887.617 3.797-.02.91-.453 1.033-.768 1.993-.316.96.082 2.092.315 2.235.233.145 3.547.07 4.734 2.795 1.188 2.727-.856 4.61-1.088 5.306-.232.7 1.54 3.78 2.794 7.077 1.84 4.838 3.82 11.224 4.825 11.514 1.69.49 3.51.182 4.2.832.69.65-.07 1.22.17 2.05.242.826.152.946.41 1.352.255.406 7.05 3.8 7.58 3.873.53.074 1.847-.05 2.134-.547.285-.496.594-.806.594-.806s-.634-.86.26-1.45c.89-.59 1.013.32 1.013.32s5.285-6.9 7.385-6.56c2.1.34 2.353 5.097 1.085 7.937-1.46 3.275-7.164 8.074-7.963 8.692-.8.617-1.636.69-1.78.716-.63.107-2.55-1.33-2.55-1.33s-.698 0-.853-.31c-.154-.31.427-.367.427-.367s-1.23-1.468-2.112-1.728c-.88-.26-7.246-.386-9.183-.625-1.936-.24-5.37-3.177-5.848-3.692-.477-.516-5.403 3.692-9.44 4.317-1.57.243-4.54 1.525-5.595 1.805-1.923.51-3.434.43-5.032.464-2.475.052-4.787-1.565-4.787-1.565s-.91-.286-2.102.22c-1.193.507-2.415 2.29-5.225 3.524-3.433 1.508-10.145 7.504-11.99 8.666-1.844 1.16-2.594 1.25-4.52 1.446-1.927.197-4.172-2.638-4.826-3.322-.653-.684.32-1.265-.517-3.195-.838-1.93.517-7.145.517-8.043 0-.897-.06-1.144-.517-1.217-.196-.03-.257.355-.516.32-.265-.036-.418-.583-.738-.632-.367-.056-.495.45-1.182.312-.29-.058-1.13-.566-2.183-.697-1.447-.18-3.233.02-3.978.082-2.47.21-2.547-.87-2.724-1.45-.612-2 3.66-5.22 5.815-5.45 2.155-.23 2.736.21 4.655.225 1.92.017 6.93-.673 7.587.68.658 1.356.218 2.52.218 2.52s.287.68.255.8c-.032.12-.473.016-.473.016s-.85.69-1.122 1.6c-.27.912 1.32 4.697 1.905 4.697.584 0 2.473-4.18 7.304-7.317 4.83-3.136 4.3-4.048 5.038-4.633.74-.585.435-1.39.435-2.138s.578-.703.518-1.08c-.144-.92-1.67-.988-1.67-2.026 0-1.038 3.78-9.332 3.78-9.332s-3.063-.978-3.27-1.707c-.207-.73-.754-2.302.642-4.428s3.255-3.116 3.255-3.116.007-2.103 1.358-3.325c1.35-1.222 3.455-1.222 3.455-1.222l2.595-1.434s.664-1.015 1.436-1.412z" />
</svg>
